<svg width="150" height="79" viewBox="0 0 150 79" fill="none" xmlns="http://www.w3.org/2000/svg">
<path d="M51.8379 18.4463C52.3636 18.4353 52.8862 18.5303 53.374 18.7266C53.862 18.9229 54.3051 19.2167 54.6768 19.5889C55.0484 19.9611 55.3415 20.4043 55.5371 20.8926C55.7327 21.3808 55.8273 21.9038 55.8154 22.4297C56.0064 24.5891 53.9395 26.4824 51.8379 26.4189C50.8069 26.3796 49.8308 25.9425 49.1152 25.1992C48.3997 24.456 48 23.4643 48 22.4326C48 21.4009 48.3997 20.4093 49.1152 19.666C49.8308 18.9227 50.8069 18.4856 51.8379 18.4463ZM54.043 8.39453C58.5093 10.1128 62.12 13.5201 64.0947 17.8789C64.6927 19.2706 65.206 20.6972 65.6299 22.1514C65.8993 23.2465 66.0928 24.3597 66.209 25.4814C66.2082 25.5627 66.0118 25.7472 65.8789 25.7705C65.5096 25.8384 65.1357 25.8825 64.7607 25.9033L59.9727 26.2109C59.8279 25.4814 59.689 24.8152 59.5674 24.1436C59.2591 22.5312 58.671 20.9851 57.8301 19.5752C56.5395 17.2842 54.5194 15.491 52.0918 14.4805C52.0209 14.459 51.9563 14.4208 51.9023 14.3701C51.8483 14.3193 51.8061 14.257 51.7803 14.1875C51.7545 14.1181 51.7452 14.0434 51.7529 13.9697C51.7608 13.896 51.7864 13.8243 51.8262 13.7617C52.4746 12.1002 53.1232 10.4388 53.7832 8.77734C53.8555 8.64066 53.9421 8.51178 54.043 8.39453Z" fill="#0074FF"/>
<path fill-rule="evenodd" clip-rule="evenodd" d="M81.4359 28.6768C81.048 30.0084 80.6662 31.2424 80.3246 32.4814C79.9651 33.7823 79.8511 35.1388 79.9887 36.4814C80.1393 38.446 80.7678 40.345 81.8187 42.0117C82.0213 42.3184 82.2126 42.6365 82.3978 42.9316C82.5831 43.2269 82.5708 43.2737 82.3334 43.459C80.8976 44.6169 79.4793 45.7752 78.0551 46.8926C77.9325 46.9802 77.8027 47.0577 77.6674 47.124C72.1031 40.1763 73.1156 31.4102 75.8832 26.0371L81.4359 28.6768ZM86.3178 31.1201C86.8433 31.1161 87.3645 31.2176 87.85 31.4189C88.3354 31.6203 88.7756 31.9172 89.1439 32.292C89.5123 32.6669 89.8016 33.1126 89.9945 33.6016C90.1874 34.0904 90.2802 34.6133 90.267 35.1387C90.4347 37.1013 88.4659 39.1448 86.2484 39.0869C85.2086 39.0529 84.2213 38.6204 83.4916 37.8789C82.762 37.1374 82.3458 36.1436 82.3285 35.1035C82.3316 34.047 82.7528 33.0346 83.5004 32.2881C84.248 31.5416 85.2612 31.1217 86.3178 31.1201Z" fill="#0074FF"/>
<path d="M64.0313 38.5234C64.7957 38.3626 65.5906 38.4311 66.3165 38.7197C67.0425 39.0085 67.6681 39.5054 68.1133 40.1475C68.5584 40.7893 68.8044 41.5482 68.8204 42.3291C68.8304 42.8586 68.7342 43.385 68.5381 43.877C68.342 44.369 68.0494 44.8178 67.6778 45.1953C67.3062 45.5727 66.8629 45.8723 66.3741 46.0762C65.8853 46.28 65.3607 46.3844 64.8311 46.3828C64.0499 46.3792 63.2867 46.1449 62.6378 45.71C61.9887 45.2749 61.4819 44.6579 61.1817 43.9365C60.8815 43.2152 60.8005 42.4213 60.9493 41.6543C61.098 40.8872 61.4705 40.1809 62.0186 39.624C62.5667 39.0674 63.2668 38.6843 64.0313 38.5234ZM65.7569 29.2852C67.0133 29.2852 68.2759 29.2849 69.5323 29.3486C69.9796 29.4018 70.4223 29.4871 70.8575 29.6035C70.7649 30.1824 70.6842 30.8081 70.5684 31.4102C70.4816 31.8906 70.3427 32.3594 70.2559 32.8398C70.1054 33.6852 69.9893 34.5424 69.8214 35.3877C69.7809 35.4617 69.7229 35.5249 69.6524 35.5713C69.5817 35.6177 69.5003 35.6456 69.4161 35.6533C68.8371 35.6244 68.2578 35.5094 67.6788 35.4805C66.3035 35.4264 64.9265 35.5404 63.5792 35.8213C61.8569 36.1269 60.2272 36.8221 58.8145 37.8535C57.9374 38.5856 57.1055 39.3715 56.3243 40.2051C56.0814 40.4421 55.9363 40.523 55.6124 40.2744C54.1939 39.186 52.7523 38.1375 51.3165 37.0664C51.2175 36.9865 51.1223 36.9013 51.0323 36.8115C52.6008 34.6549 54.6301 32.8747 56.9727 31.6006C58.1555 30.9567 59.4068 30.4463 60.7022 30.0781C62.3395 29.5692 64.0424 29.3022 65.7569 29.2852Z" fill="#0000FF"/>
<path fill-rule="evenodd" clip-rule="evenodd" d="M78.9575 16.9355C79.1833 16.6692 79.3571 16.5472 79.7046 16.8252C80.8334 17.7875 82.1149 18.5547 83.4965 19.0947C84.5177 19.4854 85.5697 19.7916 86.6411 20.0097C87.6581 20.1824 88.691 20.2428 89.7212 20.1894C91.0646 20.1042 92.3818 19.7746 93.6069 19.2168L94.185 20.5537C94.764 21.839 95.3439 23.1305 95.894 24.4101C96.0907 24.8556 96.0325 24.9888 95.5756 25.1855C93.9443 25.8061 92.2425 26.2245 90.5092 26.4306C88.9905 26.6069 87.4536 26.5685 85.9458 26.3154C82.9992 25.867 80.1867 24.7778 77.7065 23.125C76.9943 22.6502 76.3115 22.117 75.6167 21.6132C75.3041 21.3933 75.3152 21.1908 75.5698 20.9072C76.7278 19.5929 77.8342 18.2614 78.9575 16.9355ZM87.3012 9.93454C87.8228 9.92988 88.3401 10.0297 88.8227 10.2275C89.3053 10.4253 89.7435 10.7176 90.1118 11.0869C90.4801 11.4563 90.7718 11.8956 90.9682 12.3789C91.1645 12.862 91.2625 13.3799 91.2563 13.9013C91.395 16.0261 89.4261 17.9021 87.3012 17.8847C86.7665 17.9051 86.2329 17.8175 85.7329 17.6269C85.2328 17.4364 84.7766 17.1464 84.3911 16.7754C84.0055 16.4042 83.6982 15.9592 83.4887 15.4668C83.2794 14.9745 83.1714 14.445 83.1714 13.9101C83.1714 13.375 83.2793 12.8449 83.4887 12.3525C83.6982 11.8601 84.0055 11.415 84.3911 11.0439C84.7766 10.6728 85.2328 10.3829 85.7329 10.1923C86.2329 10.0018 86.7665 9.91413 87.3012 9.93454Z" fill="#F7931E"/>
<path fill-rule="evenodd" clip-rule="evenodd" d="M75.5952 2.20987C75.6589 1.90335 75.8091 1.79974 76.1157 1.86905C76.3846 1.93074 76.6575 1.97489 76.9321 2.00186C78.3854 2.15239 79.8275 2.285 81.2866 2.44131C81.4985 2.48616 81.7064 2.55045 81.9067 2.63272C81.5062 6.43904 79.8993 10.0181 77.3208 12.8466C74.8666 15.5547 71.764 17.5947 68.3052 18.7753C67.7956 17.3047 67.3327 15.9555 66.8579 14.6122C66.7016 14.1606 66.5218 13.7143 66.3481 13.2685C66.2383 12.9909 66.2673 12.8061 66.5854 12.6903C69.1262 11.7815 71.3695 10.193 73.0708 8.09854C74.0876 6.89329 74.8192 5.47421 75.2124 3.94717C75.3513 3.36818 75.4794 2.78886 75.5952 2.20987ZM68.063 0.0047916C69.0849 0.0410144 70.0518 0.475616 70.7573 1.21573C71.4628 1.95584 71.8511 2.94237 71.8384 3.96475C71.9889 6.14175 69.9908 7.9598 67.9585 7.95401C67.4244 7.96611 66.8933 7.87039 66.3969 7.67276C65.9005 7.47509 65.4485 7.17964 65.0688 6.80362C64.6892 6.42762 64.3894 5.97875 64.187 5.48428C63.9845 4.98976 63.8841 4.45902 63.8911 3.92471C63.8982 3.39057 64.0127 2.86283 64.228 2.37393C64.4433 1.88516 64.7548 1.4448 65.144 1.07901C65.5334 0.713069 65.9931 0.42864 66.4946 0.244049C66.996 0.0595718 67.5294 -0.0213428 68.063 0.0047916Z" fill="#0000FF"/>
<path fill-rule="evenodd" clip-rule="evenodd" d="M38.5239 60.4147C38.6248 60.4154 38.7243 60.4396 38.8149 60.484C38.9056 60.5285 38.985 60.593 39.0473 60.6725C39.1097 60.752 39.1536 60.8443 39.1753 60.943C39.1969 61.0415 39.1966 61.1437 39.1733 61.2418L35.7221 76.3239C35.0412 79.3036 31.9103 79.7379 30.7632 76.9957L27.2173 68.5368C27.0435 68.112 27.0435 67.6353 27.2173 67.2106L28.9087 62.9743C28.9305 62.9189 28.9679 62.8711 29.0171 62.8375C29.0664 62.8039 29.1253 62.7858 29.185 62.7858C29.2446 62.7858 29.3028 62.804 29.352 62.8375C29.4013 62.8711 29.4396 62.9187 29.4614 62.9743L32.8159 71.2604L34.8491 61.2604C34.8977 61.0213 35.0282 60.8061 35.2173 60.652C35.4063 60.498 35.6434 60.414 35.8872 60.4147H38.5239ZM88.7553 65.7077C89.6432 65.6697 90.5292 65.8169 91.3569 66.1403C92.1846 66.4636 92.936 66.9559 93.563 67.5856C94.7817 68.8439 95.3911 70.5035 95.3911 72.5631V73.1569H85.3364C85.4485 73.9801 85.8625 74.7324 86.4975 75.2682C87.1822 75.8099 88.0382 76.0888 88.9106 76.0543C89.9141 76.0688 90.8889 75.7178 91.6528 75.067C91.735 74.9972 91.8359 74.9529 91.9428 74.9391C92.0499 74.9253 92.1591 74.9431 92.2563 74.9899L93.9106 75.7662C93.9894 75.803 94.0586 75.8584 94.1128 75.9264C94.1668 75.9943 94.204 76.0739 94.2221 76.1588C94.2403 76.2437 94.2388 76.3316 94.2173 76.4157C94.1956 76.4998 94.155 76.5785 94.0981 76.6442C93.5698 77.2642 92.9211 77.7713 92.1919 78.1344C91.169 78.601 90.0532 78.829 88.9292 78.8014C88.0506 78.8376 87.1732 78.6939 86.352 78.3795C85.531 78.0652 84.7825 77.5868 84.1528 76.9733C83.549 76.3658 83.0755 75.6412 82.7612 74.8444C82.4469 74.0476 82.2982 73.1946 82.3247 72.3385C82.2968 71.4672 82.4443 70.599 82.7583 69.7858C83.0723 68.9725 83.5465 68.2306 84.1528 67.6041C84.7459 66.9855 85.462 66.4971 86.2544 66.1705C87.0467 65.8441 87.8987 65.6865 88.7553 65.7077ZM24.0678 61.9235C24.9408 59.8258 26.9922 59.4468 28.2993 60.7721C28.3971 60.8835 28.4614 61.0203 28.4848 61.1666C28.5082 61.3129 28.4902 61.463 28.4321 61.5993L25.4341 69.0895L22.1118 76.9821C20.9601 79.715 17.8289 79.272 17.1616 76.2877L14.3335 63.4909L8.37839 69.1813C8.33123 69.234 8.3052 69.3019 8.30515 69.3727C8.30515 69.4435 8.33118 69.5123 8.37839 69.5651L15.0464 77.8463C15.1922 77.9836 15.1187 78.2799 14.936 78.2799H10.0278C9.89207 78.279 9.76157 78.2273 9.66257 78.1344L5.23386 72.65L4.0366 78.0241C4.01377 78.1532 3.95025 78.2718 3.85593 78.3629C3.7616 78.454 3.64102 78.5136 3.5112 78.5319H0.311986C0.0880465 78.5319 -0.0452779 78.3028 0.0141346 78.0241L3.90378 60.5846C3.92662 60.4554 3.99007 60.3369 4.08445 60.2457C4.1788 60.1547 4.29932 60.0951 4.42917 60.0768H7.62839C7.85233 60.0768 7.98468 60.3058 7.92527 60.5846L7.07566 64.3912L11.5044 60.278C11.5186 60.2634 11.5354 60.2516 11.5542 60.2438C11.573 60.236 11.5934 60.2319 11.6137 60.2321H17.2671C17.5377 60.2989 17.7818 60.4469 17.9663 60.6559C18.1507 60.8648 18.2674 61.1252 18.3003 61.402L20.2378 71.151L24.0678 61.9235ZM46.0639 65.7077C46.95 65.6704 47.8345 65.8177 48.6606 66.1403C49.4866 66.4628 50.2365 66.9539 50.8628 67.5817C52.0813 68.84 52.6909 70.4987 52.6909 72.5582C52.6885 72.7174 52.6231 72.8688 52.5093 72.9801C52.3955 73.0913 52.2426 73.1531 52.0835 73.152H42.6362C42.7478 73.9765 43.1641 74.7294 43.8022 75.2633C44.4845 75.8062 45.3392 76.0853 46.2104 76.0494C47.1718 76.0609 48.1076 75.7377 48.8569 75.1354C48.9702 75.0427 49.1073 74.9841 49.2524 74.9655C49.3979 74.9469 49.546 74.9695 49.6792 75.0309L51.2143 75.7526C51.2931 75.7893 51.3633 75.8437 51.4175 75.9118C51.4716 75.9798 51.5087 76.0601 51.5268 76.1452C51.5449 76.23 51.5435 76.3179 51.5219 76.402C51.5003 76.4862 51.4588 76.5648 51.4018 76.6305C50.8746 77.2513 50.2262 77.7579 49.4966 78.1198C48.4736 78.587 47.3571 78.8159 46.2329 78.7877C45.3545 78.8239 44.4778 78.6801 43.6567 78.3659C42.8356 78.0516 42.0872 77.5731 41.4575 76.9596C40.8537 76.3521 40.3802 75.6274 40.0659 74.8307C39.7516 74.0339 39.6029 73.181 39.6294 72.3248C39.6014 71.4535 39.749 70.5854 40.063 69.7721C40.377 68.9588 40.8512 68.2169 41.4575 67.5905C42.0523 66.9738 42.769 66.4879 43.562 66.1637C44.3551 65.8395 45.2074 65.6842 46.0639 65.7077ZM60.2915 65.7077C61.0141 65.7028 61.7301 65.8473 62.394 66.1325C63.0807 66.432 63.702 66.8637 64.2221 67.403V66.6627C64.2233 66.4946 64.2908 66.3334 64.4096 66.2145C64.5284 66.0959 64.6891 66.0282 64.8569 66.027H66.8227C66.9599 66.0318 67.0896 66.0904 67.185 66.1891C67.2805 66.2879 67.3344 66.4199 67.3344 66.5573V77.8551C67.3351 77.9363 67.3193 78.0173 67.2886 78.0924C67.2578 78.1674 67.2121 78.2353 67.1548 78.2926C67.0974 78.35 67.0287 78.3956 66.9536 78.4264C66.8786 78.4571 66.7983 78.4729 66.7173 78.4723H64.7973C64.6411 78.4722 64.4908 78.4099 64.3803 78.2994C64.2699 78.1889 64.2085 78.0387 64.2085 77.8825V77.1559C63.6807 77.6813 63.0609 78.1055 62.3803 78.4078C61.7469 78.6672 61.0678 78.7976 60.3833 78.7916C59.5943 78.7945 58.8134 78.6295 58.0932 78.3073C57.373 77.985 56.7292 77.5128 56.2055 76.9225C55.0296 75.6622 54.397 73.9893 54.4458 72.2662C54.3769 70.5278 54.9889 68.8306 56.1509 67.5358C56.6696 66.9522 57.3077 66.4869 58.0219 66.1715C58.7363 65.8561 59.5106 65.6978 60.2915 65.7077ZM132.683 61.5534C132.794 61.5534 132.905 61.5753 133.007 61.6178C133.11 61.6603 133.202 61.723 133.281 61.8014C133.359 61.8798 133.422 61.9724 133.464 62.0748C133.507 62.1774 133.529 62.288 133.529 62.3991V77.9098C133.529 78.134 133.439 78.3489 133.281 78.5075C133.122 78.666 132.907 78.7555 132.683 78.7555H130.901C130.677 78.7555 130.462 78.666 130.303 78.5075C130.145 78.3489 130.055 78.134 130.055 77.9098V62.3991C130.055 62.288 130.077 62.1774 130.12 62.0748C130.162 61.9724 130.225 61.8798 130.303 61.8014C130.382 61.7229 130.475 61.6603 130.578 61.6178C130.68 61.5754 130.79 61.5534 130.901 61.5534H132.683ZM142.409 61.5534C144.52 61.5534 145.9 61.6404 146.522 61.8141C147.515 62.076 148.389 62.6693 148.999 63.4957C149.696 64.4692 150.048 65.6487 149.996 66.8453C150.025 67.7673 149.827 68.683 149.419 69.5104C149.075 70.1845 148.574 70.7662 147.957 71.2057C147.418 71.5943 146.805 71.8709 146.157 72.0192C144.966 72.2111 143.761 72.294 142.555 72.2662H141.138C141.027 72.2663 140.917 72.2873 140.815 72.3297C140.712 72.3722 140.619 72.4349 140.54 72.5133C140.462 72.5918 140.399 72.6852 140.357 72.7877C140.314 72.8902 140.292 73.0001 140.292 73.111V77.9098C140.292 78.1339 140.204 78.3489 140.045 78.5075C139.887 78.6659 139.672 78.7554 139.448 78.7555H137.665C137.444 78.7506 137.233 78.6595 137.079 78.5016C136.924 78.3436 136.837 78.1309 136.837 77.9098V62.3991C136.837 62.1749 136.927 61.9599 137.085 61.8014C137.244 61.6429 137.459 61.5534 137.683 61.5534H142.409ZM119.124 61.5534C120.226 61.5169 121.328 61.6276 122.401 61.8825C123.391 62.1696 124.286 62.7174 124.992 63.4684C125.739 64.259 126.308 65.2021 126.656 66.233C127.066 67.5487 127.257 68.9228 127.222 70.3004C127.247 71.54 127.068 72.7753 126.692 73.9567C126.332 75.1002 125.705 76.1418 124.864 76.9957C124.167 77.6344 123.331 78.1038 122.423 78.3668C121.422 78.6399 120.386 78.7627 119.348 78.7321H113.658C113.547 78.7321 113.437 78.7101 113.334 78.6676C113.232 78.6251 113.14 78.5625 113.062 78.484C112.984 78.4055 112.921 78.313 112.879 78.2106C112.837 78.1082 112.816 77.998 112.817 77.8873L112.798 62.3981C112.798 62.2874 112.819 62.1773 112.861 62.0748C112.903 61.9724 112.965 61.8799 113.043 61.8014C113.122 61.7228 113.215 61.6604 113.317 61.6178C113.419 61.5753 113.528 61.5534 113.639 61.5534H119.124ZM72.1137 66.027C72.187 66.0274 72.2589 66.0499 72.3198 66.0905C72.3805 66.131 72.428 66.1883 72.4565 66.2555L75.3364 72.9743C75.3504 73.0087 75.374 73.0384 75.4048 73.0592C75.4357 73.0801 75.4729 73.0914 75.5102 73.0914C75.5474 73.0914 75.5839 73.08 75.6147 73.0592C75.6455 73.0384 75.6691 73.0087 75.6831 72.9743L78.5532 66.2555C78.5812 66.1879 78.629 66.1301 78.6899 66.0895C78.7509 66.0489 78.8227 66.0269 78.896 66.027H81.2495C81.3118 66.027 81.3734 66.0432 81.4282 66.0729C81.4829 66.1025 81.5299 66.1448 81.5639 66.1969C81.598 66.2491 81.6184 66.3096 81.6235 66.3717C81.6285 66.4337 81.6173 66.4964 81.5923 66.5534L76.6108 78.2575C76.5827 78.3251 76.535 78.3829 76.4741 78.4235C76.4131 78.464 76.3413 78.4861 76.268 78.486H74.7378C74.664 78.4858 74.5914 78.464 74.5298 78.4235C74.4681 78.3829 74.4195 78.3251 74.3901 78.2575L69.3999 66.5534C69.3759 66.4959 69.3657 66.4327 69.3716 66.3707C69.3774 66.3089 69.3989 66.2497 69.4331 66.1979C69.4674 66.1459 69.5141 66.1026 69.5688 66.0729C69.6234 66.0434 69.6845 66.0275 69.7466 66.027H72.1137ZM102.968 65.7077C103.29 65.7108 103.61 65.7726 103.91 65.8903C103.992 65.9249 104.058 65.9891 104.096 66.07C104.134 66.1509 104.141 66.2432 104.115 66.3287L103.393 68.3307C103.359 68.4184 103.293 68.4899 103.207 68.5299C103.122 68.5699 103.025 68.5754 102.936 68.5455C102.756 68.4714 102.564 68.43 102.37 68.4225C102.101 68.4443 101.843 68.5412 101.627 68.7028C101.412 68.8645 101.245 69.0846 101.149 69.3366C100.815 69.9353 100.651 71.1005 100.651 72.8414V78.1159C100.651 78.1636 100.642 78.2112 100.624 78.2555C100.607 78.2997 100.58 78.3397 100.546 78.3737C100.513 78.4077 100.473 78.4353 100.429 78.4537C100.385 78.4722 100.337 78.4811 100.29 78.4811H97.9136C97.8167 78.4811 97.7233 78.4431 97.6548 78.3746C97.5862 78.3061 97.5474 78.2128 97.5473 78.1159V66.3707C97.5473 66.2738 97.5862 66.1805 97.6548 66.1119C97.7233 66.0434 97.8166 66.0045 97.9136 66.0045H99.8647C99.9616 66.0046 100.055 66.0434 100.124 66.1119C100.192 66.1805 100.23 66.2739 100.23 66.3707V67.5719C100.478 67.0048 100.878 66.5177 101.386 66.1647C101.855 65.8567 102.407 65.6974 102.968 65.7077ZM60.9682 68.6051C60.5166 68.5943 60.0673 68.6806 59.6518 68.858C59.2365 69.0354 58.8635 69.2998 58.5591 69.6334C57.9388 70.3738 57.5991 71.3091 57.5991 72.275C57.5991 73.2409 57.9388 74.1762 58.5591 74.9166C58.8621 75.2468 59.2321 75.5087 59.644 75.6852C60.0561 75.8617 60.5015 75.9486 60.9497 75.9401C61.4057 75.9516 61.8591 75.8665 62.2798 75.6901C62.7003 75.5136 63.0789 75.25 63.3901 74.9166C64.0622 74.1936 64.422 73.2344 64.3911 72.2477C64.4124 71.7666 64.3377 71.2856 64.1714 70.8336C64.005 70.3818 63.7504 69.9674 63.4223 69.6149C63.107 69.2838 62.725 69.0233 62.3022 68.8493C61.8795 68.6753 61.4251 68.5919 60.9682 68.6051ZM117.858 64.4645H117.14C117.026 64.4608 116.912 64.4798 116.806 64.5211C116.7 64.5625 116.603 64.6249 116.521 64.7047C116.439 64.7846 116.375 64.8805 116.332 64.986C116.288 65.0914 116.266 65.2048 116.267 65.319V75.0123C116.267 75.2365 116.357 75.4515 116.515 75.61C116.674 75.7685 116.889 75.858 117.113 75.858H118.886C119.589 75.8817 120.293 75.826 120.984 75.693C121.504 75.5746 121.987 75.3276 122.387 74.9752C122.832 74.5123 123.148 73.9404 123.301 73.317C123.566 72.2878 123.684 71.226 123.653 70.1637C123.689 69.1312 123.571 68.0986 123.301 67.1012C123.117 66.4727 122.777 65.9008 122.314 65.4381C121.864 65.0255 121.309 64.7449 120.709 64.6285C119.766 64.4873 118.811 64.4327 117.858 64.4645ZM46.2104 68.3532C45.3891 68.3392 44.5859 68.5965 43.9253 69.0846C43.4173 69.521 43.0231 70.0748 42.7778 70.6979H49.5512C49.3459 70.0122 48.9141 69.4164 48.3266 69.0075C47.7102 68.5673 46.9677 68.3373 46.2104 68.3532ZM88.9009 68.3541C88.0797 68.3403 87.2763 68.5965 86.6157 69.0846C86.1078 69.5209 85.7146 70.075 85.4692 70.6979H92.2378C92.0358 70.0116 91.6048 69.4153 91.0171 69.0075C90.4006 68.5673 89.6581 68.3383 88.9009 68.3541ZM141.97 64.4733H141.138C140.917 64.4781 140.707 64.5693 140.552 64.7272C140.398 64.8852 140.311 65.0979 140.311 65.319V68.5094C140.311 68.7336 140.401 68.9486 140.559 69.1071C140.718 69.2655 140.933 69.3541 141.157 69.3541H142.194C143.116 69.4052 144.041 69.3144 144.936 69.0846C145.377 68.9214 145.757 68.6268 146.024 68.2399C146.289 67.8441 146.425 67.3761 146.416 66.9C146.438 66.3318 146.24 65.7772 145.864 65.3512C145.499 64.9468 145.008 64.6773 144.47 64.5875C143.641 64.4878 142.805 64.4496 141.97 64.4733Z" fill="#4D4D4D"/>
</svg>
